<?xml version="1.0" standalone="no"?>
<!DOCTYPE svg PUBLIC "-//W3C//DTD SVG 20010904//EN"
 "http://www.w3.org/TR/2001/REC-SVG-20010904/DTD/svg10.dtd">
<svg version="1.0" xmlns="http://www.w3.org/2000/svg"
 width="1200.000000pt" height="1200.000000pt" viewBox="0 0 1200.000000 1200.000000"
 preserveAspectRatio="xMidYMid meet">
<metadata>
Created by potrace 1.11, written by Peter Selinger 2001-2013
</metadata>
<g transform="translate(0.000000,1200.000000) scale(0.100000,-0.100000)"
fill="#000000" stroke="none">
<path d="M2100 11301 c-164 -53 -438 -240 -607 -413 -111 -114 -132 -163 -97
-230 68 -131 419 -373 656 -452 116 -39 192 -38 238 1 l32 27 46 -25 c116 -61
279 -208 416 -374 435 -526 707 -1260 781 -2100 68 -785 66 -985 -11 -1315
-30 -129 -81 -284 -146 -450 -113 -285 -199 -683 -262 -1221 -74 -622 -80
-1091 -21 -1387 115 -567 229 -857 461 -1167 149 -200 338 -374 577 -533 129
-85 383 -221 517 -277 36 -15 66 -28 68 -29 1 -2 -5 -41 -14 -87 -33 -172
-102 -584 -98 -588 3 -3 8 0 13 5 5 5 225 336 491 736 451 681 481 730 475
760 -15 71 -55 113 -127 137 -46 15 -92 67 -159 179 -159 262 -351 771 -321
850 26 71 536 603 807 844 216 192 511 418 545 418 4 0 42 -51 83 -112 260
-393 503 -883 547 -1103 18 -88 20 -91 71 -138 134 -120 450 -221 639 -203
131 12 176 41 299 191 209 253 361 578 412 875 17 99 20 155 17 286 -1 89 -6
165 -10 169 -12 12 -202 -45 -296 -90 l-94 -45 5 30 c4 16 12 80 19 142 18
155 18 991 0 1148 -29 266 -59 383 -113 445 -84 96 -312 117 -567 52 l-87 -22
27 80 c56 168 82 365 58 449 -11 41 -10 48 8 78 27 43 182 194 299 290 217
180 449 341 588 410 l80 40 130 -5 c273 -11 865 -145 1024 -233 l43 -24 172
11 c94 6 234 8 311 5 127 -6 300 -27 337 -41 33 -13 88 394 58 430 -10 12 -37
15 -134 14 -66 0 -147 -4 -179 -8 l-58 -7 7 30 c23 115 95 279 175 401 60 94
236 273 327 334 34 23 62 45 62 50 0 10 -116 93 -184 131 l-55 31 -85 -76
c-48 -42 -107 -102 -131 -132 -51 -62 -56 -54 -29 50 19 74 64 165 104 210 16
19 30 41 30 50 0 37 -171 80 -329 81 l-103 1 -39 -44 c-37 -42 -103 -160 -127
-228 -11 -33 -47 -51 -78 -39 -12 5 3 33 71 132 47 70 83 129 80 132 -2 3 -58
7 -124 10 l-120 5 -51 -79 c-58 -89 -180 -328 -180 -350 0 -42 -229 45 -544
206 -178 91 -278 125 -336 116 -21 -3 -67 -19 -102 -36 -54 -26 -75 -30 -143
-30 l-81 0 18 103 c24 138 33 335 20 426 -9 63 -18 85 -56 140 -271 395 -730
769 -1248 1015 -559 266 -1163 397 -1898 412 -299 6 -314 3 -355 -66 -30 -52
-28 -212 4 -292 43 -109 132 -219 218 -267 14 -7 2 -34 -72 -172 -48 -90 -108
-199 -133 -243 l-45 -78 -41 6 c-104 17 -236 112 -304 218 -22 35 -82 104
-133 153 -347 333 -1344 1074 -1674 1244 -70 36 -88 41 -145 40 -36 0 -90 -8
-120 -18z m3770 -3790 c74 -22 154 -45 178 -51 35 -9 42 -15 42 -35 0 -76
-200 -180 -308 -160 -93 16 -195 122 -278 287 -24 48 -44 90 -44 92 0 2 62
-17 138 -44 75 -26 198 -66 272 -89z m1470 -23 c0 -28 -65 -123 -121 -178 -73
-72 -127 -95 -204 -87 -30 3 -79 16 -108 30 -58 27 -120 74 -115 89 2 6 89 32
193 59 105 26 222 59 260 72 84 29 95 31 95 15z"/>
</g>
</svg>
